<svg id="mascot-export-svg" xmlns="http://www.w3.org/2000/svg" width="312" height="264" viewBox="0 0 312 264" style="image-rendering: pixelated;"><rect x="72" y="24" width="24" height="24" fill="#5C6BC0"></rect><rect x="96" y="24" width="24" height="24" fill="#5C6BC0"></rect><rect x="120" y="24" width="24" height="24" fill="#5C6BC0"></rect><rect x="144" y="24" width="24" height="24" fill="#5C6BC0"></rect><rect x="168" y="24" width="24" height="24" fill="#5C6BC0"></rect><rect x="192" y="24" width="24" height="24" fill="#5C6BC0"></rect><rect x="216" y="24" width="24" height="24" fill="#5C6BC0"></rect><rect x="48" y="48" width="24" height="24" fill="#5C6BC0"></rect><rect x="72" y="48" width="24" height="24" fill="#5C6BC0"></rect><rect x="96" y="48" width="24" height="24" fill="#5C6BC0"></rect><rect x="120" y="48" width="24" height="24" fill="#5C6BC0"></rect><rect x="144" y="48" width="24" height="24" fill="#5C6BC0"></rect><rect x="168" y="48" width="24" height="24" fill="#5C6BC0"></rect><rect x="192" y="48" width="24" height="24" fill="#5C6BC0"></rect><rect x="216" y="48" width="24" height="24" fill="#5C6BC0"></rect><rect x="240" y="48" width="24" height="24" fill="#5C6BC0"></rect><rect x="48" y="72" width="24" height="24" fill="#5C6BC0"></rect><rect x="72" y="72" width="24" height="24" fill="#5C6BC0"></rect><rect x="96" y="72" width="24" height="24" fill="#3E4DA0"></rect><rect x="120" y="72" width="24" height="24" fill="#E8EAF6"></rect><rect x="144" y="72" width="24" height="24" fill="#5C6BC0"></rect><rect x="168" y="72" width="24" height="24" fill="#5C6BC0"></rect><rect x="192" y="72" width="24" height="24" fill="#3E4DA0"></rect><rect x="216" y="72" width="24" height="24" fill="#E8EAF6"></rect><rect x="240" y="72" width="24" height="24" fill="#5C6BC0"></rect><rect x="48" y="96" width="24" height="24" fill="#5C6BC0"></rect><rect x="72" y="96" width="24" height="24" fill="#5C6BC0"></rect><rect x="96" y="96" width="24" height="24" fill="#3E4DA0"></rect><rect x="120" y="96" width="24" height="24" fill="#3E4DA0"></rect><rect x="144" y="96" width="24" height="24" fill="#5C6BC0"></rect><rect x="168" y="96" width="24" height="24" fill="#5C6BC0"></rect><rect x="192" y="96" width="24" height="24" fill="#3E4DA0"></rect><rect x="216" y="96" width="24" height="24" fill="#3E4DA0"></rect><rect x="240" y="96" width="24" height="24" fill="#5C6BC0"></rect><rect x="0" y="120" width="24" height="24" fill="#5C6BC0"></rect><rect x="24" y="120" width="24" height="24" fill="#5C6BC0"></rect><rect x="48" y="120" width="24" height="24" fill="#5C6BC0"></rect><rect x="72" y="120" width="24" height="24" fill="#5C6BC0"></rect><rect x="96" y="120" width="24" height="24" fill="#5C6BC0"></rect><rect x="120" y="120" width="24" height="24" fill="#5C6BC0"></rect><rect x="144" y="120" width="24" height="24" fill="#5C6BC0"></rect><rect x="168" y="120" width="24" height="24" fill="#5C6BC0"></rect><rect x="192" y="120" width="24" height="24" fill="#5C6BC0"></rect><rect x="216" y="120" width="24" height="24" fill="#5C6BC0"></rect><rect x="240" y="120" width="24" height="24" fill="#5C6BC0"></rect><rect x="288" y="120" width="24" height="24" fill="#3E4DA0"></rect><rect x="0" y="144" width="24" height="24" fill="#3E4DA0"></rect><rect x="48" y="144" width="24" height="24" fill="#5C6BC0"></rect><rect x="72" y="144" width="24" height="24" fill="#5C6BC0"></rect><rect x="96" y="144" width="24" height="24" fill="#5C6BC0"></rect><rect x="120" y="144" width="24" height="24" fill="#5C6BC0"></rect><rect x="144" y="144" width="24" height="24" fill="#5C6BC0"></rect><rect x="168" y="144" width="24" height="24" fill="#5C6BC0"></rect><rect x="192" y="144" width="24" height="24" fill="#5C6BC0"></rect><rect x="216" y="144" width="24" height="24" fill="#5C6BC0"></rect><rect x="240" y="144" width="24" height="24" fill="#5C6BC0"></rect><rect x="264" y="144" width="24" height="24" fill="#5C6BC0"></rect><rect x="288" y="144" width="24" height="24" fill="#5C6BC0"></rect><rect x="48" y="168" width="24" height="24" fill="#5C6BC0"></rect><rect x="72" y="168" width="24" height="24" fill="#5C6BC0"></rect><rect x="96" y="168" width="24" height="24" fill="#5C6BC0"></rect><rect x="120" y="168" width="24" height="24" fill="#5C6BC0"></rect><rect x="144" y="168" width="24" height="24" fill="#5C6BC0"></rect><rect x="168" y="168" width="24" height="24" fill="#5C6BC0"></rect><rect x="192" y="168" width="24" height="24" fill="#5C6BC0"></rect><rect x="216" y="168" width="24" height="24" fill="#5C6BC0"></rect><rect x="240" y="168" width="24" height="24" fill="#5C6BC0"></rect><rect x="48" y="192" width="24" height="24" fill="#5C6BC0"></rect><rect x="72" y="192" width="24" height="24" fill="#5C6BC0"></rect><rect x="96" y="192" width="24" height="24" fill="#5C6BC0"></rect><rect x="120" y="192" width="24" height="24" fill="#5C6BC0"></rect><rect x="144" y="192" width="24" height="24" fill="#5C6BC0"></rect><rect x="168" y="192" width="24" height="24" fill="#5C6BC0"></rect><rect x="192" y="192" width="24" height="24" fill="#5C6BC0"></rect><rect x="216" y="192" width="24" height="24" fill="#5C6BC0"></rect><rect x="240" y="192" width="24" height="24" fill="#5C6BC0"></rect><rect x="72" y="216" width="24" height="24" fill="#5C6BC0"></rect><rect x="96" y="216" width="24" height="24" fill="#5C6BC0"></rect><rect x="120" y="216" width="24" height="24" fill="#3E4DA0"></rect><rect x="144" y="216" width="24" height="24" fill="#3E4DA0"></rect><rect x="168" y="216" width="24" height="24" fill="#3E4DA0"></rect><rect x="192" y="216" width="24" height="24" fill="#5C6BC0"></rect><rect x="216" y="216" width="24" height="24" fill="#5C6BC0"></rect><rect x="72" y="240" width="24" height="24" fill="#3E4DA0"></rect><rect x="96" y="240" width="24" height="24" fill="#3E4DA0"></rect><rect x="192" y="240" width="24" height="24" fill="#3E4DA0"></rect><rect x="216" y="240" width="24" height="24" fill="#3E4DA0"></rect></svg>