<?xml version="1.0" standalone="no"?> <!DOCTYPE svg PUBLIC "-//W3C//DTD SVG 20010904//EN" "http://www.w3.org/TR/2001/REC-SVG-20010904/DTD/svg10.dtd"> <svg version="1.0" xmlns="http://www.w3.org/2000/svg" width="1800.000000pt" height="1800.000000pt" viewBox="0 0 1800.000000 1800.000000" preserveAspectRatio="xMidYMid meet"> <g transform="translate(0.000000,1800.000000) scale(0.100000,-0.100000)" fill="#fcfcfc" stroke="none"> <path d="M8345 14600 c-245 -8 -394 -25 -690 -76 -199 -35 -319 -62 -400 -90 -23 -8 -50 -14 -61 -14 -11 0 -40 -6 -65 -14 -24 -7 -71 -21 -104 -31 -83 -24 -160 -50 -225 -75 -30 -12 -69 -25 -87 -30 -110 -27 -618 -254 -783 -350 -8 -4 -49 -28 -90 -53 -41 -25 -91 -53 -110 -64 -29 -16 -234 -150 -320 -210 -55 -38 -268 -199 -314 -237 -116 -97 -146 -123 -231 -200 -233 -211 -546 -556 -690 -761 -16 -24 -65 -92 -108 -152 -75 -104 -207 -301 -207 -309 0 -2 -21 -38 -46 -81 -25 -43 -49 -85 -54 -93 -72 -123 -290 -571 -290 -595 0 -7 -4 -16 -9 -19 -4 -3 -18 -34 -31 -68 -12 -35 -28 -79 -35 -98 -77 -200 -115 -318 -164 -505 -17 -66 -37 -133 -42 -150 -6 -16 -15 -50 -19 -75 -9 -52 -25 -136 -45 -235 -58 -284 -82 -541 -92 -969 -9 -410 25 -836 93 -1171 8 -38 23 -119 34 -180 12 -60 25 -123 30 -140 5 -16 17 -57 26 -90 35 -130 99 -341 120 -397 8 -21 20 -55 28 -75 8 -21 29 -78 47 -128 17 -49 38 -99 45 -110 8 -11 14 -25 14 -32 0 -26 258 -551 286 -584 8 -8 14 -18 14 -22 0 -4 20 -41 45 -83 25 -41 45 -77 45 -80 0 -3 18 -31 163 -249 111 -166 311 -424 455 -584 90 -100 389 -393 482 -472 187 -159 389 -313 537 -411 43 -28 103 -68 133 -88 71 -47 216 -133 305 -180 39 -20 95 -51 126 -68 31 -17 80 -40 110 -53 30 -12 61 -28 69 -34 8 -6 67 -33 130 -59 63 -26 129 -53 145 -61 17 -7 50 -20 75 -30 25 -9 54 -22 65 -28 11 -5 33 -14 50 -18 16 -4 62 -19 100 -32 145 -51 402 -128 490 -147 22 -5 60 -13 85 -19 83 -21 175 -40 220 -46 25 -3 59 -10 75 -15 27 -8 127 -23 339 -50 302 -39 1009 -39 1241 0 33 5 81 10 107 10 26 0 82 7 125 16 43 8 112 21 153 29 86 16 177 34 235 45 187 37 579 155 790 238 205 81 258 103 401 173 56 27 117 56 135 64 32 15 57 28 224 119 309 169 758 491 1005 721 254 237 306 289 430 429 312 354 525 653 752 1056 89 158 268 525 268 549 0 6 15 43 34 83 19 40 41 93 49 118 9 25 37 104 62 175 26 72 58 168 72 215 14 47 35 121 48 165 13 44 27 94 30 110 3 17 12 55 20 85 33 135 75 350 75 385 0 15 7 63 15 108 34 195 46 339 52 630 5 301 -7 665 -26 788 -6 35 -17 114 -26 174 -26 186 -46 298 -61 340 -8 23 -14 51 -14 63 0 24 -14 81 -61 257 -58 212 -57 210 -103 333 -36 94 -76 209 -76 214 0 3 -10 27 -21 53 -15 33 -24 44 -29 34 -8 -17 -26 -102 -84 -406 -39 -202 -47 -243 -62 -323 -8 -47 -22 -113 -30 -147 -8 -34 -14 -71 -14 -83 0 -35 -23 -21 -90 57 -36 41 -83 96 -105 121 -95 111 -113 127 -125 116 -9 -9 -8 -20 3 -45 8 -19 22 -63 32 -99 10 -36 24 -84 31 -108 8 -23 14 -50 14 -60 0 -9 6 -34 14 -57 14 -41 33 -129 60 -270 27 -146 37 -219 46 -335 35 -449 35 -453 10 -805 -14 -189 -56 -504 -85 -625 -7 -30 -20 -91 -30 -135 -10 -44 -24 -102 -32 -130 -50 -180 -100 -341 -118 -387 -8 -21 -22 -57 -31 -80 -9 -24 -20 -52 -25 -63 -4 -11 -18 -45 -30 -75 -86 -220 -236 -502 -417 -788 -68 -106 -279 -389 -391 -522 -116 -139 -447 -473 -591 -597 -167 -143 -465 -363 -605 -446 -11 -7 -36 -24 -55 -38 -19 -14 -60 -40 -90 -56 -30 -17 -95 -53 -145 -80 -104 -57 -334 -170 -415 -203 -30 -12 -73 -30 -95 -40 -22 -10 -74 -30 -115 -45 -41 -14 -91 -32 -110 -39 -19 -8 -62 -21 -95 -31 -105 -30 -159 -47 -183 -56 -12 -5 -84 -24 -160 -43 -366 -92 -793 -146 -1137 -146 -169 1 -542 24 -625 39 -30 5 -102 17 -160 26 -328 52 -469 88 -850 216 -152 51 -382 150 -619 267 -81 40 -265 147 -385 224 -71 46 -137 86 -146 90 -10 4 -21 11 -25 17 -3 6 -32 28 -63 50 -31 21 -95 69 -142 105 -47 37 -95 75 -106 84 -135 106 -487 457 -625 622 -186 224 -377 498 -506 728 -33 59 -229 452 -243 487 -4 11 -18 45 -31 75 -12 30 -28 73 -35 95 -7 22 -22 65 -34 95 -23 60 -51 145 -76 230 -9 30 -20 66 -26 79 -5 14 -13 43 -18 65 -5 23 -18 73 -30 111 -11 39 -25 93 -30 120 -5 28 -13 70 -19 95 -5 25 -17 88 -26 140 -9 52 -23 127 -31 167 -8 40 -14 89 -14 110 0 21 -7 88 -15 148 -21 155 -21 749 0 929 30 254 81 551 120 686 7 25 20 74 30 110 9 36 23 81 30 100 7 19 20 62 30 95 69 235 201 543 360 840 75 142 96 178 116 207 11 14 19 28 19 31 0 4 97 150 194 292 27 39 60 84 75 101 14 17 55 69 91 115 223 290 547 613 819 819 40 30 90 69 110 85 51 43 367 257 401 272 8 3 33 19 55 33 22 15 76 45 120 67 44 22 134 67 200 100 66 33 145 71 175 83 30 12 71 29 90 37 19 9 49 22 65 29 17 7 55 20 85 30 30 9 70 23 88 30 18 8 37 14 43 14 6 0 25 6 42 13 34 15 105 37 200 62 31 8 81 22 110 30 30 8 63 15 74 15 11 0 43 6 69 14 290 83 847 135 1239 116 225 -12 468 -35 581 -55 45 -8 92 -15 105 -15 13 0 80 -14 149 -30 69 -17 157 -38 195 -46 124 -28 373 -106 525 -164 30 -12 66 -25 80 -30 63 -20 318 -135 443 -199 156 -80 172 -83 332 -56 50 9 133 23 185 31 52 8 129 21 170 29 82 15 183 32 270 45 30 5 71 13 90 19 19 6 51 11 70 11 19 0 42 5 50 10 13 8 11 13 -10 35 -42 41 -436 309 -545 369 -27 16 -79 46 -115 67 -131 77 -450 239 -472 239 -8 0 -18 4 -24 9 -5 5 -49 25 -99 46 -49 20 -101 42 -115 49 -14 7 -52 21 -85 30 -33 10 -68 23 -78 28 -10 5 -89 31 -175 59 -86 27 -170 55 -187 60 -16 6 -48 14 -70 19 -22 4 -60 12 -85 19 -174 49 -335 80 -595 115 -215 30 -303 38 -520 46 -239 10 -263 10 -560 0z"/> <path d="M13925 13409 c-27 -5 -93 -16 -145 -25 -52 -9 -126 -22 -165 -29 -38 -8 -97 -19 -130 -26 -33 -6 -82 -15 -110 -19 -27 -4 -84 -13 -125 -19 -197 -31 -269 -43 -320 -53 -30 -6 -68 -12 -85 -14 -16 -3 -64 -11 -105 -19 -134 -25 -302 -54 -525 -90 -55 -9 -128 -23 -162 -31 -34 -8 -74 -14 -88 -14 -15 0 -54 -7 -88 -15 -34 -8 -123 -24 -197 -35 -210 -32 -260 -42 -260 -56 0 -7 23 -32 51 -56 184 -155 619 -590 619 -618 0 -25 -30 -57 -255 -266 -260 -242 -296 -276 -350 -323 -49 -43 -203 -186 -439 -405 -65 -61 -131 -122 -146 -136 -64 -58 -250 -231 -278 -257 -50 -48 -144 -134 -247 -228 -55 -49 -116 -106 -136 -125 -20 -19 -76 -71 -125 -115 -82 -74 -136 -123 -300 -275 -32 -30 -108 -100 -169 -155 -60 -54 -134 -122 -164 -150 -29 -27 -59 -55 -65 -60 -6 -6 -45 -42 -86 -80 -42 -39 -111 -101 -154 -140 -44 -38 -93 -83 -111 -100 -17 -16 -71 -66 -121 -110 -49 -43 -96 -86 -105 -95 -22 -21 -194 -177 -246 -224 -55 -49 -68 -45 -158 39 -38 37 -88 83 -110 103 -22 20 -103 94 -180 165 -77 71 -180 166 -230 211 -173 157 -210 191 -215 196 -14 14 -416 385 -565 520 -93 85 -197 179 -229 210 -33 30 -66 62 -75 70 -9 8 -30 25 -46 38 -16 13 -63 56 -105 95 -41 40 -104 97 -139 127 -35 30 -92 80 -126 110 -34 30 -133 118 -220 195 -87 77 -184 163 -215 190 -73 65 -203 181 -249 223 -38 34 -67 38 -65 9 0 -9 2 -313 3 -674 l1 -658 152 -135 c83 -74 196 -175 252 -223 107 -94 222 -195 240 -212 10 -9 123 -109 316 -280 32 -27 83 -72 115 -100 32 -27 83 -72 115 -100 122 -106 416 -361 445 -385 16 -14 50 -43 75 -66 46 -42 147 -130 331 -289 57 -49 136 -119 175 -155 39 -36 115 -103 169 -150 54 -47 119 -103 144 -126 131 -117 217 -192 247 -214 20 -15 33 -32 32 -43 -3 -17 -65 -18 -1397 -17 -1028 0 -1397 -3 -1407 -11 -12 -9 -14 -105 -14 -545 0 -307 4 -535 9 -538 12 -8 6299 -8 6311 -1 11 7 14 1052 4 1079 -6 14 -106 16 -1032 16 l-1025 0 -61 52 c-34 29 -63 55 -66 59 -5 6 -190 171 -229 204 -100 84 -206 189 -206 204 0 17 79 94 525 509 80 74 190 178 246 231 55 53 134 125 174 161 40 36 105 95 144 132 39 36 85 79 101 94 37 34 427 398 555 519 305 288 411 387 460 430 30 26 138 127 240 225 102 97 214 203 250 235 80 72 349 327 525 495 177 171 244 230 256 230 6 0 39 -28 73 -62 68 -69 345 -379 379 -426 23 -30 100 -120 176 -204 52 -57 66 -53 76 25 3 29 13 86 21 127 26 136 43 224 60 325 9 55 23 122 30 149 8 27 14 64 14 82 0 18 5 45 11 61 6 15 15 60 20 98 14 106 48 298 70 397 6 26 14 71 19 100 8 56 22 127 46 243 8 39 14 82 14 96 0 15 7 46 15 69 8 23 15 57 15 74 0 17 6 63 15 101 8 39 28 144 45 235 17 91 38 201 46 245 8 44 16 102 17 130 2 56 0 58 -78 44z"/> </g> </svg>